<svg width="380" height="380" viewBox="0 0 380 380" fill="none" xmlns="http://www.w3.org/2000/svg">
<rect width="380" height="380" fill="none"/>
<g clip-path="url(#clip0_6756_83097)">
<rect width="1280" height="900" transform="translate(0.0273438 -520)" fill="none"/>
<rect width="380" height="900" transform="translate(0.0273438 -520)" fill="none"/>
<rect width="380" height="380" transform="translate(0.0273438)" fill="none"/>
<rect x="0.0273438" y="260" width="380" height="120" fill="#1089FF"/>
<rect x="0.0273438" y="260" width="119.5" height="120" fill="#1057C8"/>
<rect x="119.527" y="260" width="119.5" height="120" fill="#1089FF"/>
<ellipse cx="119.528" cy="189" rx="47.8" ry="48" fill="#1089FF"/>
<path d="M0.0273438 380L120.025 260L239.027 380H0.0273438Z" fill="white"/>
<rect width="900" height="900" transform="translate(380.027 -520)" fill="#F8F7F7"/>
</g>
<path d="M-3369.83 -2758.27C-3369.83 -2758.82 -3370.27 -2759.27 -3370.83 -2759.27C-3371.38 -2759.27 -3371.83 -2758.82 -3371.83 -2758.27H-3369.83ZM1151.03 3992.48C1151.42 3992.09 1151.42 3991.45 1151.03 3991.06L1144.67 3984.7C1144.28 3984.31 1143.64 3984.31 1143.25 3984.7C1142.86 3985.09 1142.86 3985.72 1143.25 3986.11L1148.91 3991.77L1143.25 3997.43C1142.86 3997.82 1142.86 3998.45 1143.25 3998.84C1143.64 3999.23 1144.28 3999.23 1144.67 3998.84L1151.03 3992.48ZM-3371.83 -2758.27V3967.77H-3369.83V-2758.27H-3371.83ZM-3346.83 3992.77H1150.33V3990.77H-3346.83V3992.77ZM-3371.83 3967.77C-3371.83 3981.58 -3360.63 3992.77 -3346.83 3992.77V3990.77C-3359.53 3990.77 -3369.83 3980.47 -3369.83 3967.77H-3371.83Z" fill="#333333"/>
<defs>
<clipPath id="clip0_6756_83097">
<rect width="1280" height="900" fill="white" transform="translate(0.0273438 -520)"/>
</clipPath>
</defs>
</svg>
