<svg width="300" height="136" viewBox="0 0 300 136" fill="none" xmlns="http://www.w3.org/2000/svg">
<path fill-rule="evenodd" clip-rule="evenodd" d="M32.4081 88.1875C31.8233 88.8022 30.2194 89.0299 29.7695 89.7297C29.0812 90.7935 27.5072 93.2151 26.2702 94.3687C22.2959 98.0957 13.786 99.9677 9.58434 96.4064C9.31154 96.425 9.47302 96.5798 9.79912 97.6002C10.1048 99.5295 11.6805 104.057 11.1004 105.214C11.4751 106.497 11.8717 106.026 12.5819 106.739C13.0726 107.22 13.2718 108.481 13.8315 108.821C14.4727 108.78 15.1123 108.736 15.7504 108.69C15.8649 109.041 15.984 109.393 16.1016 109.755C16.92 109.695 17.7431 109.636 18.563 109.577C19.0271 109.679 20.4208 110.393 20.8316 110.503C21.7425 110.436 22.6565 110.379 23.5674 110.314C25.6556 110.862 27.4758 110.001 29.2396 108.828C30.221 108.176 31.2981 108.279 32.1698 107.542C33.435 106.471 35.1564 104.377 35.9622 102.93C37.9392 99.3808 37.2713 90.8848 35.4778 88.7821C34.777 88.0265 33.9476 88.0126 32.4081 88.1875ZM48.9419 85.8623C47.4603 86.9802 46.8379 86.7046 45.9678 88.4342C45.88 88.4342 46.1011 88.6974 46.0086 88.6974C46.8959 90.4378 48.9184 91.1407 50.4093 92.364C50.8734 92.7511 52.1292 94.9002 52.7249 95.0582C53.396 95.8478 53.8334 98.0326 54.2692 98.0326C54.7286 98.6473 54.2331 100.094 54.6784 100.656C54.7129 103.244 54.346 103.429 53.8898 103.926C53.8898 104.107 54.1406 104.578 54.1406 104.753C54.2645 104.876 55.3165 105.62 55.7743 105.53C57.1994 105.573 63.0519 110.082 63.5175 110.952C67.716 111.262 67.4119 109.997 70.306 108.783C71.0899 108.45 71.7123 108.766 72.225 108.236C72.7627 107.695 72.8082 106.623 73.324 106.069C73.3945 95.8742 59.3457 86.2169 48.9419 85.8623ZM60.3344 64.3111C55.1309 65.0884 51.9499 66.7235 49.9855 68.0675C48.6153 69.012 48.2123 69.6484 47.9176 70.0447C47.6213 70.4442 47.4206 71.3237 47.568 72.2512C47.7185 73.1709 48.0979 74.1526 48.9084 74.6976C55.2956 74.23 66.3876 73.8321 68.5449 79.1338C68.6609 79.8693 68.8286 80.3136 68.8443 80.4902C70.9577 79.9761 69.4118 80.1573 72.527 80.6419C73.2419 80.7518 74.9994 80.3601 76.1674 80.0783C76.6957 79.956 76.9952 79.4791 76.9952 79.4791C76.9952 79.4791 76.8964 78.9758 76.9262 78.7033C76.9262 78.7033 78.019 78.7807 78.4673 78.4416C81.421 77.9678 79.8674 76.596 81.2627 75.0522C80.4224 65.1457 70.133 62.8432 60.3344 64.3111ZM20.7386 82.3838C21.8815 82.0896 23.8303 81.9394 24.8509 81.4378C26.4767 80.6326 32.0689 76.7725 30.2895 73.6277C29.7392 67.0068 21.6479 72.6042 18.2019 70.2801C14.7167 69.8373 10.7957 63.3232 9.74689 60.5345C9.3377 59.4306 9.50702 59.8084 8.94889 58.9351C8.95516 58.8453 8.59143 59.2386 8.59614 59.1456C7.57551 60.3178 7.75267 61.3428 7.59433 64.2011C7.13653 64.1733 6.68345 64.1438 6.22252 64.116C6.13472 65.1518 6.02968 65.717 5.5374 66.2481C5.43863 66.4246 5.33359 66.5934 5.23482 66.7715C4.36784 66.4835 4.80054 66.8922 4.44779 66.1769C1.23855 66.3333 1.47528 69.5198 0 71.3345C0.0658468 77.2819 11.9872 84.6213 20.7386 82.3838ZM43.9623 50.0318C44.2367 47.7836 43.8981 44.4995 45.6947 42.9542C46.2199 40.5542 50.0406 41.1147 49.4464 39.588C49.0796 38.6326 47.2813 39.0879 46.5523 39.2613C46.0036 39.3929 40.7625 41.0295 38.7463 41.2525C37.8935 41.0187 37.0406 40.7818 36.1877 40.548C32.9001 40.9846 31.0015 43.5689 29.1703 45.622C27.6355 47.3469 25.5613 51.5585 27.2122 54.0824C27.1197 54.6336 27.0272 55.1833 26.9363 55.7376L30.6738 61.1322C31.9626 62.0442 32.1334 62.7224 33.5209 63.622C33.8078 64.0478 34.0932 64.469 34.3801 64.8963C35.5151 65.6334 38.8624 65.6427 39.4268 65.1627C44.8136 65.6582 44.2289 54.8829 45.9393 52.6254C45.723 51.6065 44.8168 50.5521 43.9623 50.0318Z" fill="white"/>
<path fill-rule="evenodd" clip-rule="evenodd" d="M101.26 70.7266C96.7085 70.7266 96.0626 74.8623 95.9419 76.6429L95.9137 77.0796C95.9137 77.0796 99.3424 77.1632 101.205 77.1632C103.067 77.1632 106.181 77.0796 106.181 77.0796V76.6662C106.181 74.6146 105.926 70.7266 101.26 70.7266ZM95.9282 82.8711C95.9282 86.9542 98.9493 89.5647 102.883 89.5647C106.785 89.5647 109.811 88.1758 111.648 86.7931C111.813 87.0391 112.528 88.2823 113.248 89.5345C113.978 90.8049 114.714 92.0844 114.886 92.341C111.83 94.5459 107.61 96.2754 100.737 96.2754C91.9852 96.2754 86.9746 90.421 86.9746 80.6275C86.9746 65.9426 96.9159 64.3555 101.191 64.3555C110.463 64.3555 114.967 69.4559 114.967 79.9446V82.2656C114.32 82.2744 113.733 82.283 113.177 82.2911C110.878 82.3247 109.093 82.3508 105.702 82.3508C103.229 82.3508 95.9282 82.5273 95.9282 82.5273V82.8711ZM130.254 89.9362C135.026 89.9362 138.908 88.377 138.908 80.0544C138.908 72.9752 135.026 70.6201 130.254 70.6201H127.75V89.9362H130.254ZM132.782 65.0127C141.426 65.0127 147.273 70.4042 147.273 80.0599C147.273 92.1961 139.242 95.7837 130.827 95.7837H119.565C119.59 95.3644 119.584 94.5079 119.576 93.3761V93.3759C119.571 92.694 119.565 91.9122 119.565 91.0658V69.7275C119.565 68.883 119.571 68.1532 119.576 67.5164L119.576 67.5153C119.584 66.4574 119.59 65.6563 119.565 65.0127H132.782ZM159.489 91.0678C159.489 93.3191 159.6 95.7857 159.6 95.7857H151.244C151.244 95.7857 151.3 93.3191 151.3 91.0678V69.7295C151.3 67.4812 151.244 65.0146 151.244 65.0146H170.998V70.9682C170.998 70.9682 166.583 70.8567 165.083 70.8567H159.489V77.0533L165.083 77.1122C166.13 77.1122 169.736 77.0533 169.736 77.0533V82.722C169.736 82.722 166.536 82.6384 165.083 82.6384L159.489 82.6709V91.0678Z" fill="white"/>
</svg>
